<svg width="226" height="247" viewBox="0 0 226 247" fill="none" xmlns="http://www.w3.org/2000/svg">
<path d="M96.5 7.5L87.5 13L82 18.5M96.5 7.5L104 6.5L108.5 7.5L114.5 11L119 15L126.5 23L134.5 29.5L140 34L140.6 35.5M96.5 7.5L96 5.5L98 4L101 2H107M82 18.5L76.5 20L70.5 26V27.75M82 18.5L94.5 20.5L95 21.5M70.5 29.5L60 30.5H53.5L46.5 35.5M70.5 29.5V27.75M70.5 29.5L78 27.75L89.5 30.5L109.5 40L124.5 50.5L138.786 67.5M46.5 35.5L48 45L54.5 54.5L57.5 58.5L59 56M46.5 35.5L52.5 34H59L68.5 35.5L75 36.5M59 56L58 55H59.5M59 56L60 57M59.5 55L61.5 52L65.5 52.5L69.5 54.0385M59.5 55L60 57M71.5 71L74 67L75 62.5V60.5M71.5 71H68.5M71.5 71L71 73.5L71.5 77L75 79H76.5L78.5 78.5L80 79M68.5 71L63.5 68.5L61 64L60 58.5V57M68.5 71V74V80M75 60.5V58.5L72 55L69.5 54.0385M75 60.5H78L80.5 62M80.5 62L82 59.5L84.5 58L88.5 58.5L94 60L97 62.5L98.5 63.5L99 66.5M80.5 62V67.5L82 71.5L84.5 75.6667M99 66.5L98.5 73.5L96.5 77.5L93.5 79L89.5 78.5L85 76.5L84.5 75.6667M99 66.5L103 67.5L107 67L118.5 65M118.5 65L117.5 57L114.5 51.5V49M118.5 65L119 70.5L123 73.5L125.5 77.5M114.5 49L107 46L101 44H95L88.5 41.5L82 39L75 36.5M114.5 49L118 50.5L123 54.0385L128 60M75 36.5L73.5 37.5L72 42.5L70.25 46L69.5 47.5M69.5 47.5V48.5V51.5V54.0385M69.5 47.5L72.5 49L75 50.5L78 54.0385M125.5 77.5V69.5L126.5 64L128 60M125.5 77.5V82.5L124 87.5M128 60L131.5 64M131.5 64L137 70.5L138.786 73M131.5 64V67L130.5 70.5V73.5L129 77.5L128 83.5L126.5 90L125.5 95.5L124.5 99.5L124 105L123 112.5L122 118.5L119.5 125.5L117.5 131.5M142 77.5L144 83.5L145 89L143 93M142 77.5L138.786 73M142 77.5L140.5 71.5L138.786 67.5M143 93L140.5 85.5L138.5 79.5V75.5L138.786 73M143 93L144.239 102.5M117.5 131.5L115 138.5L109.5 146L105 150.5L99.5 155.5L93.5 160.5L91 163.5L90 166M117.5 131.5V141L109 158.5L115 153L111 162.5L118.5 155.5V167.5L116 179L107.5 192.5L115 188.5L109 197L99 204.5M90 166H88.5M90 166H92M88.5 166H85.5L84 167.5V170.5L85.5 171H88.5M88.5 166L87.5 162L86.5 158L85.5 148.5M92 171L90 169L91 167.5L92 166M92 171L93.5 169V167.5L92 166M92 171H90.75M85.5 148.5L85 139L84 131.5L83 128L82.5 120.5L81 115L80.5 109.5L80 107V104.5M85.5 148.5L82.5 157L78.5 177.5V165L75.5 182.5L82.5 195L66.5 183.5V174L69.5 163.5L64.5 167.5L61.5 182.5L59.5 163.5L61.5 157L56.5 162L53 174L54.5 162.5L59.5 151.5L64.5 139L54.5 146L51.5 153L53 143.5L56.5 134.5L59.5 127.5L53 129.5L48 136.5L51.5 127.5L59.5 124.5L63.5 118.5L64.5 111.5L59.5 115L51.5 116.5L59 112.5L64.5 107M80 104.5L77.5 103.5L74.5 101L72.5 97L72 94.5V90.5L71 88.5L69.5 85L68.5 80M80 104.5L85 105L93 104.5L102 101L109.5 94.5L116 88.5L119 85.5M68.5 80L65.5 83.5L62.5 94.5L65.5 90V94.5L63.5 102.5L64.5 107M119 85.5L120.5 87.5M119 85.5L120.5 79L123 77L124.5 79M120.5 87.5H124M120.5 87.5L119 97L117.5 102.5L113 105L117.5 104.5L112.5 108.5L106.5 115L102 122.5L106.5 117L113 112.5L110 117.5L106.5 120.5L111 118.5L115 116L112 120.5M124 87.5L122 95.5L121.5 102.5L120.5 111.5L118.5 120.5L116 128L112 136.5M112 136.5L107.5 144.5L102 151.5L97 155.5L93.5 158.5L91 160.5L89.5 162.5L89 161L88 154L87.5 146L86.5 135.5L85 130.5L84.5 125L84 119.5V116.5M112 136.5L113 127.5L115 120.5L112 122.5L109 133V124.5M84 113.5L83.5 109L82.5 105M84 113.5L87.5 119.5L93 123.5L102 124.5L107 123.5L112 120.5M84 113.5V116.5M88.5 171H89.5H90.75M88.5 171L89 177.5M89 177.5L90.5 184.5L92 192.5L93 196.5M89 177.5L90 189.5V200L88.5 208V214L90.5 218L92.5 220.5M93 196.5L96 204.5L97 208.5M93 196.5L91.5 204.5L91 210L91.5 216L93 218M96 219.5H97.5L98 217V214.75M96 219.5L95.5 218.5L94 218H93M96 219.5V221.5M93 218L92.5 219V220.5M92.5 220.5L93 221.5L95 222.5L96 222V221.5M96 221.5L98 220.5L100.5 217.5L101 213M101 213L100.5 209L99 204.5M101 213L109.5 204.5L106.5 211L103 213L109.5 211L116 200L127.5 182V203.5L118.5 229L130 204.5L131 179L139 167.5V179L135 192.5L140.5 182L138 202.5L127.5 221.5L142 202.5L147 163.5L143 139L146 116L144.239 102.5M99 204.5L95.5 197L94 191L91 177.5L90.75 171M84.5 75.6667V78.5L83.5 80L81.5 80.5L79.5 80M70.5 27.75L72 26H76L79.5 24.5L83 25L88.5 26L91.5 27.75M91.5 27.75L99.5 29.5L107 34L111.5 37.5M91.5 27.75L95 21.5M111.5 37.5L118 40L122.5 43L128 50.5L133 54.0385L138 59L137 62L140 64L140.5 66M111.5 37.5L115.5 30.5M140.5 66L138.786 67.5M140.5 66L142 62V56L140.5 52M140.5 52L140 49.5L143 45L142 39L140.6 35.5M140.5 52L136.5 47.5L132.5 44.5M95 21.5H97L105.5 23.5L115.5 30.5M115.5 30.5L124.5 35.5L132.5 44.5M132.5 44.5L130 51.5M121 4.5L109.5 2H107M107 2L111.5 1L119 2L123 2.5L127.5 1.5L130.5 2L138 7.5L144 13L151.5 17.5L154.5 20M154.5 20L150.5 24.5L146 27.75L143 33V35.25M154.5 20L157 18.5H159.5M149.5 45L147 44.5L145.5 42L143 37.5V35.25M149.5 45L148 39L149.5 35.5L154.5 32L159.5 28.5L169.5 35M149.5 45L159 64L169.5 89L174 101L176 106.5M169.5 35L172 32M169.5 35L174 41.5L189.5 56L205.5 77.5L216.5 99.5L225.5 111.5V120.5L222.5 127.5L214.5 135.5L205.5 144.5M172 32L167 28.5L159.5 18.5M172 32L168.5 27.75L159.5 18.5M140.6 35.5L143 35.25M112 120.5L109 124.5M109 124.5L107 125.5L102 126.5L93 125L86.5 120.5L84 116.5M97 208.5L98 212.5V214.75M97 208.5L94 216L98 214.75M64.5 107L49 114L30 128L24 138.5L19 148.5L14 175.5L6 208L1 217L7 221.5M44.5 203.5L40 211L37.5 221.5L35.5 230.5L32 232.5M44.5 203.5L40 182M44.5 203.5L43 230.5L40 246M32 134.5L27 161L30 212.5M72.5 107L68 124.5L62.5 134.5M62.5 165L72.5 144.5L74.5 122.5M77.5 150.5L71 174L72.5 184.5M131.5 90.5L138.5 109.5L135 134.5M130.5 111.5L128 136.5L137 154M126.5 165L121.5 182L112.5 200M121.5 134.5L118.5 150.5M7 221.5L19 230.5L28.5 234.5L32 232.5M7 221.5L6 229V240.5V246M32 232.5V245M144.239 102.5H157.5H170L176 106.5M176 106.5L179 111.5M179 111.5L174 118.5L172.75 128.75M179 111.5L186.5 119.5M171.5 154V139L172.75 128.75M171.5 154L178 160.5L183.5 158L194.5 151.25M171.5 154L178 163.5M205.5 144.5L194 157L186.5 163.5H178M205.5 144.5L194.5 151.25M178 163.5L166 171L159 182L156.5 200L157.5 229L159 245M152.5 189.5L148 216L139 245M154.5 218.5L150 245M159 137.5L157.5 157L159 169M163 151.5V169M170 108.5L160.5 119.5L152.5 144.5M163 106.5L156.5 112.5L150 130.5M195 130.5L202.5 134.5H207M172.75 128.75L176 148.5L185.5 153L194.5 151.25M86 54.5L93 53.5L99 54.5L103.5 57" stroke="#969696"/>
</svg>
